<svg width="47" height="40" viewBox="0 0 47 40" fill="none" xmlns="http://www.w3.org/2000/svg">
<path d="M46.9186 27.1563C46.9186 34.076 41.3091 39.6855 34.3894 39.6855L15.5955 39.6855C13.6733 39.6855 12.1151 38.1273 12.1151 36.2052L12.1151 12.5388C12.1151 8.69453 15.2315 5.57813 19.0758 5.57813L43.4383 5.57813C45.3604 5.57813 46.9186 7.13633 46.9186 9.05848L46.9186 27.1563Z" fill="#FFE7E7"/>
<path d="M25.6561 32.3125C21.6608 32.3125 19.5727 28.5956 18.8627 26.9947H14.5473C13.8373 28.6513 11.7492 32.3125 7.75392 32.3125C2.33871 32.3125 2.33871 27.7604 2.33871 25.8254C2.33871 23.4727 6.09734 16.0808 6.84906 14.6887C6.95019 14.5357 7.08932 14.4117 7.25283 14.3287C7.41634 14.2457 7.59861 14.2067 7.78176 14.2154H25.6283C25.821 14.2166 26.0097 14.2703 26.1741 14.3709C26.3384 14.4715 26.4722 14.6151 26.561 14.7861C27.3127 16.1782 31.0713 23.5841 31.0713 25.9228C31.0713 27.816 31.0713 32.3125 25.6561 32.3125ZM13.8373 24.9623H19.5727C19.7915 24.9603 20.0052 25.0281 20.1829 25.1557C20.3606 25.2833 20.4931 25.4643 20.5611 25.6722C20.5611 25.6722 22.1759 30.28 25.6561 30.28C28.7465 30.28 28.9832 28.4564 28.9832 25.881C28.9832 24.6003 26.7419 19.6724 24.9879 16.2478H8.42212C6.66809 19.6724 4.42684 24.6003 4.42684 25.881C4.42684 28.4564 4.66349 30.28 7.75392 30.28C11.2341 30.28 12.835 25.714 12.8489 25.6722C12.9169 25.4643 13.0494 25.2833 13.2271 25.1557C13.4048 25.0281 13.6185 24.9603 13.8373 24.9623Z" fill="black"/>
<path d="M16.705 16.2478C16.4612 16.2489 16.2247 16.1645 16.0365 16.0094C15.8483 15.8543 15.7204 15.6382 15.6749 15.3987C15.536 14.5003 15.5778 13.5833 15.7977 12.7012C16.0176 11.8192 16.4113 10.9899 16.9556 10.2619C17.7098 9.46198 18.6347 8.84253 19.6614 8.44966C20.6882 8.05679 21.7904 7.90061 22.8859 7.99278C23.023 7.99278 23.1587 8.01978 23.2854 8.07225C23.4121 8.12472 23.5272 8.20162 23.6241 8.29857C23.7211 8.39552 23.798 8.51062 23.8505 8.63729C23.9029 8.76396 23.9299 8.89973 23.9299 9.03684C23.9299 9.17395 23.9029 9.30971 23.8505 9.43638C23.798 9.56305 23.7211 9.67815 23.6241 9.7751C23.5272 9.87205 23.4121 9.94896 23.2854 10.0014C23.1587 10.0539 23.023 10.0809 22.8859 10.0809C22.1004 10.0009 21.3069 10.094 20.5613 10.3537C19.8157 10.6135 19.1361 11.0336 18.5704 11.5844C17.8593 12.58 17.56 13.8118 17.7352 15.0228C17.7592 15.1581 17.7563 15.2968 17.7265 15.431C17.6968 15.5652 17.6409 15.6921 17.562 15.8047C17.4831 15.9172 17.3828 16.013 17.2668 16.0867C17.1508 16.1603 17.0214 16.2104 16.886 16.2339L16.705 16.2478Z" fill="black"/>
</svg>
