<svg width="46" height="40" viewBox="0 0 46 40" fill="none" xmlns="http://www.w3.org/2000/svg">
<path d="M45.6659 27.1563C45.6659 34.076 40.0564 39.6855 33.1366 39.6855L14.3428 39.6855C12.4206 39.6855 10.8624 38.1273 10.8624 36.2052L10.8624 12.5388C10.8624 8.69452 13.9788 5.57811 17.8231 5.57811L42.1856 5.57811C44.1077 5.57811 45.6659 7.13632 45.6659 9.05846L45.6659 27.1563Z" fill="#FFE7E7"/>
<path d="M16.705 34.5328C13.7452 34.5328 10.8519 33.6551 8.39095 32.0107C5.92998 30.3664 4.0119 28.0292 2.87924 25.2947C1.74658 22.5602 1.45023 19.5513 2.02765 16.6484C2.60507 13.7455 4.03034 11.079 6.12322 8.9861C8.2161 6.89323 10.8826 5.46796 13.7855 4.89053C16.6884 4.31311 19.6973 4.60947 22.4318 5.74212C25.1663 6.87478 27.5035 8.79287 29.1479 11.2538C30.7922 13.7148 31.6699 16.6081 31.6699 19.5679C31.6662 23.5357 30.0884 27.3399 27.2827 30.1456C24.477 32.9513 20.6728 34.5291 16.705 34.5328ZM16.705 6.69111C14.1582 6.69111 11.6686 7.44632 9.55105 8.86124C7.43348 10.2762 5.78303 12.2872 4.80841 14.6402C3.8338 16.9931 3.5788 19.5822 4.07565 22.08C4.57251 24.5779 5.7989 26.8723 7.59975 28.6731C9.4006 30.474 11.695 31.7004 14.1929 32.1972C16.6907 32.6941 19.2798 32.4391 21.6327 31.4645C23.9856 30.4899 25.9967 28.8394 27.4116 26.7218C28.8266 24.6043 29.5818 22.1147 29.5818 19.5679C29.5781 16.1539 28.2203 12.8808 25.8062 10.4667C23.3921 8.05264 20.119 6.6948 16.705 6.69111Z" fill="black"/>
<path d="M14.8814 26.8485C14.143 26.8485 13.4348 26.5551 12.9127 26.033C12.3905 25.5109 12.0972 24.8027 12.0972 24.0643V15.7118C12.1062 15.21 12.2507 14.7201 12.5154 14.2937C12.78 13.8673 13.155 13.5204 13.6007 13.2896C14.0495 13.0609 14.5519 12.9582 15.0545 12.9925C15.557 13.0268 16.0409 13.1969 16.4544 13.4845L22.4265 17.6607C22.783 17.9188 23.0732 18.2578 23.2734 18.6498C23.4736 19.0419 23.5779 19.4757 23.5779 19.9159C23.5779 20.3561 23.4736 20.7899 23.2734 21.182C23.0732 21.574 22.783 21.913 22.4265 22.1711L16.4544 26.3473C15.9928 26.6696 15.4443 26.8443 14.8814 26.8485ZM14.8814 15.0715C14.7754 15.0715 14.6707 15.0953 14.5751 15.1411C14.4654 15.1976 14.3734 15.2835 14.3096 15.3892C14.2457 15.4949 14.2123 15.6162 14.2132 15.7397V24.0922C14.2123 24.2156 14.2457 24.3369 14.3096 24.4426C14.3734 24.5483 14.4654 24.6342 14.5751 24.6907C14.676 24.7584 14.7947 24.7945 14.9162 24.7945C15.0376 24.7945 15.1563 24.7584 15.2572 24.6907L21.2293 20.5145C21.3183 20.4546 21.3912 20.3738 21.4416 20.2791C21.492 20.1845 21.5184 20.0788 21.5184 19.9716C21.5184 19.8643 21.492 19.7587 21.4416 19.664C21.3912 19.5694 21.3183 19.4885 21.2293 19.4287L15.3129 15.1967C15.1901 15.1018 15.0359 15.057 14.8814 15.0715Z" fill="black"/>
</svg>
