<svg width="46" height="40" viewBox="0 0 46 40" fill="none" xmlns="http://www.w3.org/2000/svg">
<path d="M45.7923 27.1563C45.7923 34.076 40.1828 39.6855 33.263 39.6855L14.4692 39.6855C12.547 39.6855 10.9888 38.1273 10.9888 36.2052L10.9888 12.5388C10.9888 8.69452 14.1052 5.57811 17.9495 5.57811L42.312 5.57811C44.2341 5.57811 45.7923 7.13632 45.7923 9.05846L45.7923 27.1563Z" fill="#FFE7E7"/>
<path d="M17.2465 7.66634C14.7607 7.66634 12.737 9.70852 12.737 12.2049C12.737 13.7842 13.5479 15.1786 14.7725 15.9914C13.2935 16.486 12.0137 17.4103 11.075 18.6195C10.556 18.2203 9.97614 17.8993 9.35101 17.6692C10.299 16.9654 10.9184 15.835 10.9184 14.5644C10.9184 12.4471 9.20605 10.7139 7.10161 10.7139C4.99717 10.7139 3.28479 12.4471 3.28479 14.5644C3.28479 15.8357 3.90478 16.9667 4.85353 17.6705C2.3417 18.5974 0.547791 21.0241 0.547791 23.8801V25.8863C0.548048 26.0392 0.609223 26.1857 0.717693 26.2934C0.826162 26.4014 0.972935 26.4615 1.12587 26.461H9.92765C9.94898 26.4633 9.97032 26.4646 9.99165 26.4643H24.5018C24.5231 26.4646 24.5447 26.4633 24.5658 26.461H33.3682C33.6847 26.4597 33.9409 26.2029 33.9417 25.8863V23.8801C33.9417 21.0241 32.1509 18.5974 29.6404 17.6702C30.5891 16.9667 31.2091 15.8354 31.2091 14.5641C31.2091 12.4468 29.4967 10.7136 27.3923 10.7136C25.2879 10.7136 23.5755 12.4468 23.5755 14.5641C23.5755 15.8347 24.1952 16.9654 25.1432 17.6689C24.5167 17.8995 23.9366 18.2216 23.4169 18.6218C22.4787 17.4118 21.2007 16.4863 19.7217 15.9914C20.9459 15.1786 21.7572 13.7842 21.7572 12.2049C21.7572 9.70852 19.7323 7.66634 17.2465 7.66634ZM17.2465 8.81788C19.1057 8.81788 20.6045 10.3267 20.6045 12.2049C20.6045 14.0685 19.129 15.5627 17.2904 15.5866C17.2758 15.5866 17.2614 15.5846 17.2465 15.5846C17.2316 15.5846 17.2174 15.5866 17.2025 15.5866C15.3639 15.563 13.8895 14.0685 13.8895 12.2049C13.8895 10.3265 15.3873 8.81788 17.2465 8.81788ZM7.10168 11.8653C8.57684 11.8653 9.76695 13.0626 9.76695 14.5643C9.76695 16.0559 8.59224 17.2481 7.13096 17.2643C7.12119 17.2643 7.11168 17.2632 7.10166 17.2632C7.09189 17.2632 7.08238 17.2643 7.07235 17.2643C5.61107 17.2481 4.43636 16.0557 4.43636 14.5643C4.43636 13.0627 5.62651 11.8653 7.10168 11.8653ZM27.3919 11.8653C28.8671 11.8653 30.0572 13.0626 30.0572 14.5643C30.0572 16.0559 28.8825 17.2481 27.4212 17.2643C27.4115 17.2643 27.402 17.2632 27.3919 17.2632C27.3822 17.2632 27.3726 17.2643 27.3626 17.2643C25.9013 17.2481 24.7266 16.0557 24.7266 14.5643C24.7266 13.0627 25.9168 11.8653 27.3919 11.8653ZM17.2024 16.7381C17.217 16.7384 17.2314 16.7402 17.2464 16.7402C17.261 16.7402 17.2754 16.7381 17.2903 16.7381C20.9776 16.7617 23.9285 19.738 23.9285 23.4638L23.9282 25.3125H10.565V23.4638C10.565 19.7377 13.5156 16.7618 17.2024 16.7381ZM7.05759 18.4171C7.07224 18.4174 7.08663 18.4192 7.10154 18.4192C7.11645 18.4192 7.13059 18.4171 7.1455 18.4171C8.39266 18.4271 9.53085 18.8572 10.4371 19.5766C9.78863 20.7241 9.41359 22.0486 9.41359 23.4641V25.3084H1.69887V23.88C1.69887 20.852 4.07975 18.441 7.05759 18.4171ZM27.3479 18.4171C27.3628 18.4174 27.3769 18.4192 27.3918 18.4192C27.4067 18.4192 27.4209 18.4171 27.4358 18.4171C30.4136 18.4408 32.7943 20.8523 32.7943 23.8803V25.3084H25.0757L25.0754 23.4641C25.0754 22.0494 24.7014 20.7259 24.0542 19.5787C24.9607 18.8582 26.0996 18.4271 27.3479 18.4171Z" fill="black"/>
</svg>
