<svg width="215" height="566" viewBox="0 0 215 566" fill="none" xmlns="http://www.w3.org/2000/svg">
<g clip-path="url(#clip0_646_924)">
<path d="M127.11 170.76C127.11 159.969 118.364 151.22 107.575 151.22C96.7862 151.22 88.04 159.969 88.04 170.76V196.96C88.04 207.752 96.7862 216.5 107.575 216.5C118.364 216.5 127.11 207.752 127.11 196.96V170.76Z" fill="#F9B59E"/>
<path d="M181.06 236.65V350.15C181.06 365.4 174.02 379.01 163 387.89C159.43 390.78 155.43 393.17 151.12 394.94C147.07 396.62 142.75 397.76 138.25 398.29C136.4 398.51 134.52 398.62 132.6 398.62H82.5401C80.6201 398.62 78.7401 398.51 76.8901 398.29C72.3801 397.76 68.0601 396.62 64.0201 394.94C59.7101 393.17 55.7101 390.78 52.1401 387.89C41.1201 379.01 34.0801 365.41 34.0801 350.15V236.65C34.0801 221.4 41.1201 207.8 52.1401 198.92C55.7101 196.03 59.7101 193.64 64.0201 191.87C68.0701 190.19 72.3901 189.05 76.8901 188.52C78.7401 188.3 80.6201 188.19 82.5401 188.19H132.6C134.52 188.19 136.4 188.3 138.25 188.52C142.76 189.05 147.08 190.19 151.12 191.87C155.43 193.64 159.43 196.03 163 198.92C174.02 207.8 181.06 221.4 181.06 236.65Z" fill="#26252A"/>
<path d="M64.0299 191.87V394.94C59.7199 393.17 55.7199 390.78 52.1499 387.89V198.93C55.7199 196.04 59.7199 193.65 64.0299 191.88V191.87Z" fill="#915439"/>
<path d="M88.7799 188.19V398.61H82.5499C80.6299 398.61 78.7499 398.5 76.8999 398.28V188.52C78.7499 188.3 80.6299 188.19 82.5499 188.19H88.7799Z" fill="#915439"/>
<path d="M113.52 188.19H101.64V398.61H113.52V188.19Z" fill="#915439"/>
<path d="M138.26 188.52V398.28C136.41 398.5 134.53 398.61 132.61 398.61H126.38V188.19H132.61C134.53 188.19 136.41 188.3 138.26 188.52Z" fill="#915439"/>
<path d="M163 198.92V387.88C159.43 390.77 155.43 393.16 151.12 394.93V191.86C155.43 193.63 159.43 196.02 163 198.91V198.92Z" fill="#915439"/>
<path d="M97.94 36H117.22C144.37 36 166.41 58.04 166.41 85.19V147.77C166.41 164.21 153.07 177.55 136.63 177.55H78.52C62.08 177.55 48.74 164.21 48.74 147.77V85.19C48.74 58.04 70.78 36 97.93 36H97.94Z" fill="#F9B59E"/>
<path d="M127.84 181.82H86.6601C83.5949 181.82 81.1101 184.305 81.1101 187.37V189.01C81.1101 192.075 83.5949 194.56 86.6601 194.56H127.84C130.905 194.56 133.39 192.075 133.39 189.01V187.37C133.39 184.305 130.905 181.82 127.84 181.82Z" fill="#915439"/>
<path d="M181.06 327.14V350.15C181.06 365.4 174.02 379.01 163 387.89C159.43 390.78 155.43 393.17 151.12 394.94C147.07 396.62 142.75 397.76 138.25 398.29C136.4 398.51 134.52 398.62 132.6 398.62H82.5401C80.6201 398.62 78.7401 398.51 76.8901 398.29C72.3801 397.76 68.0601 396.62 64.0201 394.94C59.7101 393.17 55.7101 390.78 52.1401 387.89C41.1201 379.01 34.0801 365.41 34.0801 350.15V327.14H181.05H181.06Z" fill="#252422"/>
<path d="M72.4999 215.7L47.6899 382.01C45.7399 395.11 33.5399 404.14 20.4399 402.18C7.3399 400.23 -1.6901 388.03 0.259904 374.93L25.0699 208.62C27.0199 195.52 39.2299 186.5 52.3199 188.45C58.8699 189.43 64.3999 192.96 68.0499 197.9C71.6999 202.83 73.4599 209.15 72.4899 215.7H72.4999Z" fill="#F9B59E"/>
<path d="M72.4999 215.7L51.3499 357.48L3.91992 350.4L25.0699 208.62C26.5599 198.65 33.9799 191.04 43.2099 188.84C46.1099 188.14 49.1999 187.98 52.3199 188.45C55.4399 188.92 58.3499 189.97 60.9099 191.48C63.7199 193.13 66.1399 195.33 68.0499 197.9C71.6999 202.83 73.4599 209.15 72.4899 215.7H72.4999Z" fill="#26252A"/>
<path d="M43.2199 188.85L18.7899 352.62L3.92993 350.4L25.0799 208.62C26.5699 198.65 33.9899 191.04 43.2199 188.84V188.85Z" fill="#915439"/>
<path d="M72.5 215.7L51.35 357.48L36.49 355.26L60.92 191.48C63.73 193.13 66.15 195.33 68.06 197.9C71.71 202.83 73.47 209.15 72.5 215.7Z" fill="#915439"/>
<path d="M31.8099 409.5C49.2842 409.5 63.4499 395.334 63.4499 377.86C63.4499 360.385 49.2842 346.22 31.8099 346.22C14.3356 346.22 0.169922 360.385 0.169922 377.86C0.169922 395.334 14.3356 409.5 31.8099 409.5Z" fill="#F9B59E"/>
<path d="M141.88 215.7L166.69 382.01C168.64 395.11 180.84 404.14 193.94 402.18C207.04 400.23 216.07 388.03 214.12 374.93L189.31 208.62C187.36 195.52 175.15 186.5 162.06 188.45C155.51 189.43 149.98 192.96 146.33 197.9C142.68 202.83 140.92 209.15 141.89 215.7H141.88Z" fill="#F9B59E"/>
<path d="M141.88 215.7L163.03 357.48L210.46 350.4L189.31 208.62C187.82 198.65 180.4 191.04 171.17 188.84C168.27 188.14 165.18 187.98 162.06 188.45C158.94 188.92 156.03 189.97 153.47 191.48C150.66 193.13 148.24 195.33 146.33 197.9C142.68 202.83 140.92 209.15 141.89 215.7H141.88Z" fill="#26252A"/>
<path d="M171.17 188.85L195.6 352.62L210.46 350.4L189.31 208.62C187.82 198.65 180.4 191.04 171.17 188.84V188.85Z" fill="#915439"/>
<path d="M141.88 215.7L163.03 357.48L177.89 355.26L153.46 191.48C150.65 193.13 148.23 195.33 146.32 197.9C142.67 202.83 140.91 209.15 141.88 215.7Z" fill="#915439"/>
<path d="M182.57 409.5C200.044 409.5 214.21 395.334 214.21 377.86C214.21 360.385 200.044 346.22 182.57 346.22C165.096 346.22 150.93 360.385 150.93 377.86C150.93 395.334 165.096 409.5 182.57 409.5Z" fill="#F9B59E"/>
<path d="M148.76 91.5298C148.76 82.4503 141.399 75.0898 132.32 75.0898C123.24 75.0898 115.88 82.4503 115.88 91.5298V105.51C115.88 114.589 123.24 121.95 132.32 121.95C141.399 121.95 148.76 114.589 148.76 105.51V91.5298Z" fill="white"/>
<path d="M135.88 95.53C135.88 91.6474 132.732 88.5 128.85 88.5C124.967 88.5 121.82 91.6474 121.82 95.53V101.51C121.82 105.393 124.967 108.54 128.85 108.54C132.732 108.54 135.88 105.393 135.88 101.51V95.53Z" fill="#4C4B4C"/>
<path d="M66.3998 105.51C66.3998 114.589 73.7602 121.95 82.8398 121.95C91.9194 121.95 99.2798 114.589 99.2798 105.51V91.5297C99.2798 82.4501 91.9194 75.0897 82.8398 75.0897C73.7602 75.0897 66.3998 82.4501 66.3998 91.5297V105.51Z" fill="white"/>
<path d="M79.2798 101.51C79.2798 105.393 82.4273 108.54 86.3098 108.54C90.1924 108.54 93.3398 105.393 93.3398 101.51V95.53C93.3398 91.6475 90.1924 88.5 86.3098 88.5C82.4273 88.5 79.2798 91.6475 79.2798 95.53V101.51Z" fill="#4C4B4C"/>
<path d="M123.85 84.6699H123.84C121.565 84.6699 119.72 86.5145 119.72 88.7899V92.2999C119.72 94.5753 121.565 96.4199 123.84 96.4199H123.85C126.125 96.4199 127.97 94.5753 127.97 92.2999V88.7899C127.97 86.5145 126.125 84.6699 123.85 84.6699Z" fill="white"/>
<path d="M90.4398 84.6699H90.4298C88.1544 84.6699 86.3098 86.5145 86.3098 88.7899V92.2999C86.3098 94.5753 88.1544 96.4199 90.4298 96.4199H90.4398C92.7152 96.4199 94.5598 94.5753 94.5598 92.2999V88.7899C94.5598 86.5145 92.7152 84.6699 90.4398 84.6699Z" fill="white"/>
<path d="M100.55 158.83C84.89 158.74 74.9999 153.49 68.8399 147.69C62.4299 141.65 65.3199 130.87 73.8499 128.69C74.0099 128.65 74.1799 128.61 74.3399 128.56C78.0199 127.62 81.8599 128.67 84.7199 131.16C87.58 133.65 92.3499 135.94 100.96 135.94C107.59 135.94 112.91 141.58 112.37 148.32C111.89 154.35 106.59 158.87 100.54 158.84L100.55 158.83Z" fill="white"/>
<path d="M65.3601 108.54L100.16 120.42L69.1701 124.22L65.3601 108.54Z" fill="#F9B59E"/>
<path d="M107.59 103.47H107.58C105.122 103.47 103.13 105.463 103.13 107.92V123.76C103.13 126.218 105.122 128.21 107.58 128.21H107.59C110.048 128.21 112.04 126.218 112.04 123.76V107.92C112.04 105.463 110.048 103.47 107.59 103.47Z" fill="#EF9684"/>
<path d="M107.58 130.34C111.678 130.34 115 127.018 115 122.92C115 118.822 111.678 115.5 107.58 115.5C103.482 115.5 100.16 118.822 100.16 122.92C100.16 127.018 103.482 130.34 107.58 130.34Z" fill="#EF9684"/>
<path d="M48.75 122.77C56.609 122.77 62.98 116.399 62.98 108.54C62.98 100.681 56.609 94.3101 48.75 94.3101C40.891 94.3101 34.52 100.681 34.52 108.54C34.52 116.399 40.891 122.77 48.75 122.77Z" fill="#F9B59E"/>
<path d="M166.41 122.77C174.269 122.77 180.64 116.399 180.64 108.54C180.64 100.681 174.269 94.3101 166.41 94.3101C158.551 94.3101 152.18 100.681 152.18 108.54C152.18 116.399 158.551 122.77 166.41 122.77Z" fill="#F9B59E"/>
<path d="M172.14 35.91V59.89C171.92 60.11 171.69 60.3 171.46 60.5C169.51 62.1 167.19 63.14 164.67 63.41C164.22 63.47 163.75 63.49 163.28 63.49H50.4599C48.0599 63.47 45.8099 62.77 43.8499 61.53C43.6099 61.38 43.3899 61.23 43.1499 61.06V35.91C43.1499 35.41 43.1499 34.92 43.1799 34.43C43.2099 33.48 43.2899 32.54 43.4099 31.6C43.4699 31.06 43.5499 30.54 43.6399 30.01C46.4399 12.99 61.2299 0 79.0599 0H136.23C154.48 0 169.54 13.6 171.82 31.23C171.89 31.77 171.95 32.3 172 32.84C172.08 33.75 172.13 34.69 172.13 35.63C172.13 35.72 172.13 35.81 172.13 35.91H172.14Z" fill="#B47F53"/>
<path d="M177.21 47.7598C177.21 52.1098 175.64 56.0398 173.13 58.8898C172.82 59.2498 172.48 59.5798 172.14 59.8898C171.92 60.1098 171.69 60.3098 171.46 60.4998C169.51 62.0998 167.19 63.1398 164.67 63.4098C164.22 63.4698 163.75 63.4898 163.28 63.4898H50.4599C48.0599 63.4698 45.8099 62.7698 43.8499 61.5298C43.6099 61.3798 43.3799 61.2298 43.1499 61.0598C39.2399 58.2898 36.6499 53.3598 36.6499 47.7598C36.6499 43.4198 38.2099 39.4798 40.7199 36.6398C41.4599 35.7998 42.2899 35.0598 43.1799 34.4298C43.3999 34.2798 43.6299 34.1298 43.8499 33.9898C45.8199 32.7598 48.0599 32.0498 50.4599 32.0298H163.28C163.75 32.0298 164.22 32.0498 164.67 32.1098C167.19 32.3798 169.51 33.4298 171.46 35.0298C171.69 35.2198 171.91 35.4198 172.14 35.6198C175.24 38.4898 177.22 42.8598 177.22 47.7598H177.21Z" fill="#B47F53"/>
<path d="M95.3499 27.9202L97.7199 32.0302H50.4599C48.0599 32.0502 45.8099 32.7602 43.8499 33.9902C43.6199 34.1302 43.3999 34.2802 43.1799 34.4302C43.2099 33.4802 43.2899 32.5402 43.4099 31.6002C43.4699 31.0602 43.5499 30.5402 43.6399 30.0102C43.7099 29.9602 43.7799 29.9202 43.8499 29.8702C45.8099 28.6402 48.0599 27.9302 50.4599 27.9102H95.3499V27.9202Z" fill="#89582F"/>
<path d="M172.13 35.6302C171.91 35.4202 171.69 35.2202 171.46 35.0302C169.51 33.4402 167.19 32.3902 164.67 32.1202C164.22 32.0602 163.75 32.0402 163.28 32.0402H117.56L119.93 27.9302H163.27C163.73 27.9302 164.2 27.9502 164.66 28.0102C167.18 28.2802 169.5 29.3302 171.45 30.9202C171.57 31.0202 171.69 31.1202 171.82 31.2302C171.89 31.7702 171.95 32.3002 172 32.8402C172.08 33.7502 172.13 34.6902 172.13 35.6302Z" fill="#89582F"/>
<path d="M36.5701 47.7602C36.5701 47.7602 37.5101 84.4502 52.1701 88.2502C66.8301 92.0502 75.9801 51.3602 116.67 54.2102C116.67 54.2102 65.5201 35.6202 36.5801 47.7702L36.5701 47.7602Z" fill="#B47F53"/>
<path d="M177.21 47.7602C177.21 47.7602 176.27 84.4502 161.61 88.2502C146.95 92.0502 137.8 51.3602 97.1101 54.2102C97.1101 54.2102 148.26 35.6202 177.2 47.7702L177.21 47.7602Z" fill="#B47F53"/>
<path d="M131.94 0L111.76 34.96C110.9 36.45 109.36 37.34 107.65 37.34C105.94 37.34 104.4 36.45 103.54 34.96L83.35 0H79.27C79.37 0.23 79.48 0.45 79.61 0.66L100.45 36.75C101.95 39.35 104.65 40.91 107.65 40.91C110.65 40.91 113.34 39.35 114.85 36.75L135.68 0.66C135.8 0.45 135.92 0.23 136.02 0H131.94Z" fill="#89582F"/>
<path d="M115.53 63.4902L113.3 67.3502C110.78 71.7002 104.5 71.7002 101.99 67.3502L99.76 63.4902H115.53Z" fill="#B47F53"/>
<path d="M115.53 63.4902L114.24 65.7302H101.06L99.76 63.4902H115.53Z" fill="#89582F"/>
</g>
<defs>
<clipPath id="clip0_646_924">
<rect width="214.39" height="565.58" fill="white"/>
</clipPath>
</defs>
</svg>
