<svg width="24" height="24" viewBox="0 0 24 24" fill="none" xmlns="http://www.w3.org/2000/svg">
<path d="M12 6.05337V20.3025M5 8.25464C6.26578 8.45067 7.67778 8.77657 9 9.28788M5 12.2546C5.63949 12.3537 6.3163 12.4859 7 12.6584M3.99433 3.01127C6.21271 3.26195 9.19313 3.93632 11.3168 5.42445C11.725 5.71045 12.275 5.71045 12.6832 5.42445C14.8069 3.93632 17.7873 3.26195 20.0057 3.01127C21.1036 2.88721 22 3.80402 22 4.93518V16.2C22 17.3311 21.1036 18.2483 20.0057 18.3723C17.7873 18.623 14.8069 19.2974 12.6832 20.7855C12.275 21.0715 11.725 21.0715 11.3168 20.7855C9.19313 19.2974 6.21271 18.623 3.99433 18.3723C2.89642 18.2483 2 17.3311 2 16.2V4.93518C2 3.80402 2.89642 2.88721 3.99433 3.01127Z" stroke="#E5383B" stroke-width="1.5" stroke-linecap="round"/>
</svg>
