<svg width="187" height="40" viewBox="0 0 187 40" fill="none" xmlns="http://www.w3.org/2000/svg">
<g filter="url(#filter0_b_58_148)">
<circle cx="27" cy="21" r="15" fill="#C4C4C4"/>
<circle cx="27" cy="21" r="18" stroke="white" stroke-opacity="0.2" stroke-width="6"/>
<g filter="url(#filter1_d_58_148)">
<mask id="mask0_58_148" style="mask-type:alpha" maskUnits="userSpaceOnUse" x="12" y="6" width="30" height="30">
<circle cx="27" cy="21" r="15" fill="#C4C4C4"/>
</mask>
<g mask="url(#mask0_58_148)">
<rect x="7.22729" y="6" width="38.8636" height="15" fill="#EE3434"/>
<rect x="7.22729" y="21" width="38.8636" height="15" fill="white"/>
</g>
</g>
</g>
<path d="M67.2393 18.674C67.1882 18.1584 66.9688 17.7578 66.581 17.4723C66.1932 17.1868 65.6669 17.044 65.0021 17.044C64.5504 17.044 64.169 17.108 63.858 17.2358C63.5469 17.3594 63.3082 17.532 63.142 17.7536C62.9801 17.9751 62.8991 18.2266 62.8991 18.5078C62.8906 18.7422 62.9396 18.9467 63.0462 19.1214C63.157 19.2962 63.3082 19.4474 63.5 19.5753C63.6918 19.6989 63.9134 19.8075 64.1648 19.9013C64.4162 19.9908 64.6847 20.0675 64.9702 20.1314L66.1463 20.4126C66.7173 20.5405 67.2415 20.7109 67.7188 20.924C68.196 21.1371 68.6094 21.3991 68.9588 21.7102C69.3082 22.0213 69.5788 22.3878 69.7706 22.8097C69.9666 23.2315 70.0668 23.7152 70.071 24.2607C70.0668 25.0618 69.8622 25.7564 69.4574 26.3445C69.0568 26.9283 68.4773 27.3821 67.7188 27.706C66.9645 28.0256 66.0547 28.1854 64.9893 28.1854C63.9325 28.1854 63.0121 28.0234 62.228 27.6996C61.4482 27.3757 60.8388 26.8963 60.3999 26.2614C59.9652 25.6222 59.7372 24.8317 59.7159 23.8899H62.3942C62.424 24.3288 62.5497 24.6953 62.7713 24.9893C62.9972 25.2791 63.2976 25.4986 63.6726 25.6477C64.0518 25.7926 64.4801 25.8651 64.9574 25.8651C65.4261 25.8651 65.8331 25.7969 66.1783 25.6605C66.5277 25.5241 66.7983 25.3345 66.9901 25.0916C67.1818 24.8487 67.2777 24.5696 67.2777 24.2543C67.2777 23.9602 67.1903 23.7131 67.0156 23.5128C66.8452 23.3125 66.5938 23.142 66.2614 23.0014C65.9332 22.8608 65.5305 22.733 65.0533 22.6179L63.6278 22.2599C62.5241 21.9915 61.6527 21.5717 61.0135 21.0007C60.3743 20.4297 60.0568 19.6605 60.0611 18.6932C60.0568 17.9006 60.2678 17.2081 60.6939 16.6158C61.1243 16.0234 61.7145 15.5611 62.4645 15.2287C63.2145 14.8963 64.0668 14.7301 65.0213 14.7301C65.9929 14.7301 66.8409 14.8963 67.5653 15.2287C68.294 15.5611 68.8608 16.0234 69.2656 16.6158C69.6705 17.2081 69.8793 17.8942 69.892 18.674H67.2393ZM76.3176 28.1918C75.3248 28.1918 74.4661 27.9808 73.7417 27.5589C73.0215 27.1328 72.4654 26.5405 72.0733 25.782C71.6813 25.0192 71.4853 24.1349 71.4853 23.1293C71.4853 22.1151 71.6813 21.2287 72.0733 20.4702C72.4654 19.7074 73.0215 19.1151 73.7417 18.6932C74.4661 18.267 75.3248 18.054 76.3176 18.054C77.3105 18.054 78.1671 18.267 78.8873 18.6932C79.6117 19.1151 80.1699 19.7074 80.562 20.4702C80.954 21.2287 81.15 22.1151 81.15 23.1293C81.15 24.1349 80.954 25.0192 80.562 25.782C80.1699 26.5405 79.6117 27.1328 78.8873 27.5589C78.1671 27.9808 77.3105 28.1918 76.3176 28.1918ZM76.3304 26.0824C76.7821 26.0824 77.1593 25.9545 77.4618 25.6989C77.7644 25.4389 77.9924 25.0852 78.1458 24.6378C78.3034 24.1903 78.3823 23.6811 78.3823 23.1101C78.3823 22.5391 78.3034 22.0298 78.1458 21.5824C77.9924 21.1349 77.7644 20.7812 77.4618 20.5213C77.1593 20.2614 76.7821 20.1314 76.3304 20.1314C75.8745 20.1314 75.4909 20.2614 75.1799 20.5213C74.873 20.7812 74.6408 21.1349 74.4831 21.5824C74.3297 22.0298 74.253 22.5391 74.253 23.1101C74.253 23.6811 74.3297 24.1903 74.4831 24.6378C74.6408 25.0852 74.873 25.4389 75.1799 25.6989C75.4909 25.9545 75.8745 26.0824 76.3304 26.0824ZM91.0897 20.9815L88.5968 21.1349C88.5542 20.9219 88.4625 20.7301 88.3219 20.5597C88.1813 20.3849 87.9959 20.2464 87.7658 20.1442C87.54 20.0376 87.2694 19.9844 86.954 19.9844C86.5321 19.9844 86.1763 20.0739 85.8865 20.2528C85.5968 20.4276 85.4519 20.6619 85.4519 20.956C85.4519 21.1903 85.5456 21.3885 85.7331 21.5504C85.9206 21.7124 86.2424 21.8423 86.6983 21.9403L88.4753 22.2983C89.4299 22.4943 90.1415 22.8097 90.6103 23.2443C91.079 23.679 91.3134 24.25 91.3134 24.9574C91.3134 25.6009 91.1238 26.1655 90.7445 26.6513C90.3695 27.1371 89.8539 27.5163 89.1976 27.7891C88.5456 28.0575 87.7935 28.1918 86.9412 28.1918C85.6415 28.1918 84.606 27.9212 83.8347 27.38C83.0676 26.8345 82.6181 26.093 82.486 25.1555L85.1642 25.0149C85.2452 25.4112 85.4412 25.7138 85.7523 25.9226C86.0634 26.1271 86.4618 26.2294 86.9476 26.2294C87.4249 26.2294 87.8084 26.1378 88.0982 25.9545C88.3922 25.767 88.5414 25.5263 88.5456 25.2322C88.5414 24.9851 88.437 24.7827 88.2324 24.625C88.0279 24.4631 87.7125 24.3395 87.2864 24.2543L85.5861 23.9155C84.6273 23.7237 83.9135 23.3913 83.4448 22.9183C82.9803 22.4453 82.748 21.8423 82.748 21.1094C82.748 20.4787 82.9185 19.9354 83.2594 19.4794C83.6046 19.0234 84.0882 18.6719 84.7104 18.4247C85.3368 18.1776 86.0698 18.054 86.9093 18.054C88.1493 18.054 89.1252 18.3161 89.8368 18.8402C90.5527 19.3643 90.9703 20.0781 91.0897 20.9815ZM93.0281 28V18.1818H95.7511V28H93.0281ZM94.396 16.9162C93.9911 16.9162 93.6438 16.782 93.354 16.5135C93.0685 16.2408 92.9258 15.9148 92.9258 15.5355C92.9258 15.1605 93.0685 14.8388 93.354 14.5703C93.6438 14.2976 93.9911 14.1612 94.396 14.1612C94.8008 14.1612 95.146 14.2976 95.4315 14.5703C95.7212 14.8388 95.8661 15.1605 95.8661 15.5355C95.8661 15.9148 95.7212 16.2408 95.4315 16.5135C95.146 16.782 94.8008 16.9162 94.396 16.9162ZM102.368 28.1918C101.376 28.1918 100.517 27.9808 99.7924 27.5589C99.0723 27.1328 98.5162 26.5405 98.1241 25.782C97.7321 25.0192 97.536 24.1349 97.536 23.1293C97.536 22.1151 97.7321 21.2287 98.1241 20.4702C98.5162 19.7074 99.0723 19.1151 99.7924 18.6932C100.517 18.267 101.376 18.054 102.368 18.054C103.361 18.054 104.218 18.267 104.938 18.6932C105.662 19.1151 106.221 19.7074 106.613 20.4702C107.005 21.2287 107.201 22.1151 107.201 23.1293C107.201 24.1349 107.005 25.0192 106.613 25.782C106.221 26.5405 105.662 27.1328 104.938 27.5589C104.218 27.9808 103.361 28.1918 102.368 28.1918ZM102.381 26.0824C102.833 26.0824 103.21 25.9545 103.513 25.6989C103.815 25.4389 104.043 25.0852 104.197 24.6378C104.354 24.1903 104.433 23.6811 104.433 23.1101C104.433 22.5391 104.354 22.0298 104.197 21.5824C104.043 21.1349 103.815 20.7812 103.513 20.5213C103.21 20.2614 102.833 20.1314 102.381 20.1314C101.925 20.1314 101.542 20.2614 101.231 20.5213C100.924 20.7812 100.692 21.1349 100.534 21.5824C100.381 22.0298 100.304 22.5391 100.304 23.1101C100.304 23.6811 100.381 24.1903 100.534 24.6378C100.692 25.0852 100.924 25.4389 101.231 25.6989C101.542 25.9545 101.925 26.0824 102.381 26.0824ZM115.089 21.544V23.7045H109.118V21.544H115.089ZM129.01 19.4922H126.211C126.16 19.13 126.055 18.8082 125.898 18.527C125.74 18.2415 125.537 17.9986 125.29 17.7983C125.043 17.598 124.758 17.4446 124.434 17.3381C124.114 17.2315 123.767 17.1783 123.392 17.1783C122.714 17.1783 122.124 17.3466 121.621 17.6832C121.118 18.0156 120.729 18.5014 120.452 19.1406C120.175 19.7756 120.036 20.5469 120.036 21.4545C120.036 22.3878 120.175 23.1719 120.452 23.8068C120.733 24.4418 121.125 24.9212 121.628 25.245C122.131 25.5689 122.712 25.7308 123.373 25.7308C123.743 25.7308 124.086 25.6818 124.402 25.5838C124.721 25.4858 125.005 25.343 125.252 25.1555C125.499 24.9638 125.704 24.7315 125.866 24.4588C126.032 24.1861 126.147 23.875 126.211 23.5256L129.01 23.5384C128.938 24.1392 128.757 24.7188 128.467 25.277C128.182 25.831 127.796 26.3274 127.31 26.7663C126.829 27.201 126.253 27.5462 125.584 27.8018C124.92 28.0533 124.167 28.179 123.328 28.179C122.16 28.179 121.116 27.9148 120.196 27.3864C119.28 26.858 118.555 26.093 118.023 25.0916C117.494 24.0902 117.23 22.8778 117.23 21.4545C117.23 20.027 117.498 18.8125 118.035 17.8111C118.572 16.8097 119.301 16.0469 120.221 15.5227C121.142 14.9943 122.177 14.7301 123.328 14.7301C124.086 14.7301 124.79 14.8366 125.437 15.0497C126.089 15.2628 126.667 15.5739 127.17 15.983C127.672 16.3878 128.081 16.8842 128.397 17.4723C128.716 18.0604 128.921 18.7337 129.01 19.4922ZM137.24 23.8196V18.1818H139.963V28H137.349V26.2166H137.247C137.025 26.7919 136.656 27.2543 136.141 27.6037C135.629 27.9531 135.005 28.1278 134.268 28.1278C133.612 28.1278 133.034 27.9787 132.536 27.6804C132.037 27.3821 131.647 26.9581 131.366 26.4084C131.089 25.8587 130.948 25.2003 130.944 24.4332V18.1818H133.667V23.9474C133.671 24.527 133.827 24.9851 134.134 25.3217C134.441 25.6584 134.852 25.8267 135.367 25.8267C135.695 25.8267 136.002 25.7521 136.288 25.603C136.573 25.4496 136.803 25.2237 136.978 24.9254C137.157 24.6271 137.244 24.2585 137.24 23.8196ZM144.864 14.9091V28H142.141V14.9091H144.864ZM152.268 18.1818V20.2273H146.355V18.1818H152.268ZM147.698 15.8295H150.421V24.983C150.421 25.2344 150.459 25.4304 150.536 25.571C150.612 25.7074 150.719 25.8033 150.855 25.8587C150.996 25.9141 151.158 25.9418 151.341 25.9418C151.469 25.9418 151.597 25.9311 151.725 25.9098C151.852 25.8842 151.95 25.8651 152.019 25.8523L152.447 27.8786C152.311 27.9212 152.119 27.9702 151.872 28.0256C151.624 28.0852 151.324 28.1214 150.97 28.1342C150.314 28.1598 149.739 28.0724 149.244 27.8722C148.754 27.6719 148.373 27.3608 148.1 26.9389C147.828 26.517 147.693 25.9844 147.698 25.3409V15.8295ZM160.338 23.8196V18.1818H163.061V28H160.447V26.2166H160.344C160.123 26.7919 159.754 27.2543 159.238 27.6037C158.727 27.9531 158.103 28.1278 157.366 28.1278C156.709 28.1278 156.132 27.9787 155.633 27.6804C155.135 27.3821 154.745 26.9581 154.464 26.4084C154.187 25.8587 154.046 25.2003 154.042 24.4332V18.1818H156.765V23.9474C156.769 24.527 156.925 24.9851 157.231 25.3217C157.538 25.6584 157.949 25.8267 158.465 25.8267C158.793 25.8267 159.1 25.7521 159.385 25.603C159.671 25.4496 159.901 25.2237 160.076 24.9254C160.255 24.6271 160.342 24.2585 160.338 23.8196ZM167.962 14.9091V28H165.239V14.9091H167.962ZM172.943 28.1854C172.317 28.1854 171.758 28.0767 171.268 27.8594C170.778 27.6378 170.39 27.3118 170.105 26.8814C169.824 26.4467 169.683 25.9055 169.683 25.2578C169.683 24.7124 169.783 24.2543 169.983 23.8835C170.184 23.5128 170.456 23.2145 170.802 22.9886C171.147 22.7628 171.539 22.5923 171.978 22.4773C172.421 22.3622 172.885 22.2812 173.371 22.2344C173.942 22.1747 174.403 22.1193 174.752 22.0682C175.101 22.0128 175.355 21.9318 175.513 21.8253C175.67 21.7187 175.749 21.5611 175.749 21.3523V21.3139C175.749 20.9091 175.621 20.5959 175.366 20.3743C175.114 20.1527 174.756 20.0419 174.292 20.0419C173.802 20.0419 173.412 20.1506 173.122 20.3679C172.832 20.581 172.64 20.8494 172.547 21.1733L170.028 20.9688C170.156 20.3722 170.407 19.8565 170.782 19.4219C171.157 18.983 171.641 18.6463 172.233 18.4119C172.83 18.1733 173.52 18.054 174.305 18.054C174.85 18.054 175.372 18.1179 175.871 18.2457C176.373 18.3736 176.819 18.5717 177.206 18.8402C177.599 19.1087 177.907 19.4538 178.133 19.8757C178.359 20.2933 178.472 20.794 178.472 21.3778V28H175.89V26.6385H175.813C175.655 26.9453 175.444 27.2159 175.18 27.4503C174.916 27.6804 174.599 27.8615 174.228 27.9936C173.857 28.1214 173.429 28.1854 172.943 28.1854ZM173.723 26.3061C174.123 26.3061 174.477 26.2273 174.784 26.0696C175.091 25.9077 175.331 25.6903 175.506 25.4176C175.681 25.1449 175.768 24.8359 175.768 24.4908V23.4489C175.683 23.5043 175.566 23.5554 175.417 23.6023C175.272 23.6449 175.108 23.6854 174.925 23.7237C174.741 23.7578 174.558 23.7898 174.375 23.8196C174.192 23.8452 174.025 23.8686 173.876 23.8899C173.557 23.9368 173.278 24.0114 173.039 24.1136C172.8 24.2159 172.615 24.3544 172.483 24.5291C172.351 24.6996 172.285 24.9126 172.285 25.1683C172.285 25.5391 172.419 25.8224 172.687 26.0185C172.96 26.2102 173.305 26.3061 173.723 26.3061ZM180.585 28V18.1818H183.225V19.8949H183.327C183.506 19.2855 183.806 18.8253 184.228 18.5142C184.65 18.1989 185.136 18.0412 185.686 18.0412C185.822 18.0412 185.969 18.0497 186.127 18.0668C186.284 18.0838 186.423 18.1072 186.542 18.1371V20.5533C186.414 20.5149 186.237 20.4808 186.012 20.451C185.786 20.4212 185.579 20.4062 185.392 20.4062C184.991 20.4062 184.633 20.4936 184.318 20.6683C184.007 20.8388 183.759 21.0774 183.576 21.3842C183.397 21.6911 183.308 22.0447 183.308 22.4453V28H180.585Z" fill="black"/>
<defs>
<filter id="filter0_b_58_148" x="-4" y="-10" width="62" height="62" filterUnits="userSpaceOnUse" color-interpolation-filters="sRGB">
<feFlood flood-opacity="0" result="BackgroundImageFix"/>
<feGaussianBlur in="BackgroundImageFix" stdDeviation="5"/>
<feComposite in2="SourceAlpha" operator="in" result="effect1_backgroundBlur_58_148"/>
<feBlend mode="normal" in="SourceGraphic" in2="effect1_backgroundBlur_58_148" result="shape"/>
</filter>
<filter id="filter1_d_58_148" x="0" y="2" width="54" height="54" filterUnits="userSpaceOnUse" color-interpolation-filters="sRGB">
<feFlood flood-opacity="0" result="BackgroundImageFix"/>
<feColorMatrix in="SourceAlpha" type="matrix" values="0 0 0 0 0 0 0 0 0 0 0 0 0 0 0 0 0 0 127 0" result="hardAlpha"/>
<feOffset dy="8"/>
<feGaussianBlur stdDeviation="6"/>
<feColorMatrix type="matrix" values="0 0 0 0 0.245833 0 0 0 0 0.0891146 0 0 0 0 0.0891146 0 0 0 0.08 0"/>
<feBlend mode="normal" in2="BackgroundImageFix" result="effect1_dropShadow_58_148"/>
<feBlend mode="normal" in="SourceGraphic" in2="effect1_dropShadow_58_148" result="shape"/>
</filter>
</defs>
</svg>
